<?xml version="1.0" encoding="UTF-8" standalone="no"?>
<!-- Created with Inkscape (http://www.inkscape.org/) -->

<svg
   version="1.1"
   id="svg551"
   width="100"
   height="100"
   viewBox="0 0 100 100"
   sodipodi:docname="email-icon-1300.svg"
   inkscape:version="1.1 (c68e22c387, 2021-05-23)"
   xmlns:inkscape="http://www.inkscape.org/namespaces/inkscape"
   xmlns:sodipodi="http://sodipodi.sourceforge.net/DTD/sodipodi-0.dtd"
   xmlns="http://www.w3.org/2000/svg"
   xmlns:svg="http://www.w3.org/2000/svg">
  <defs
     id="defs555" />
  <sodipodi:namedview
     id="namedview553"
     pagecolor="#505050"
     bordercolor="#ffffff"
     borderopacity="1"
     inkscape:pageshadow="0"
     inkscape:pageopacity="0"
     inkscape:pagecheckerboard="1"
     showgrid="false"
     inkscape:zoom="8"
     inkscape:cx="47.8125"
     inkscape:cy="46.125"
     inkscape:window-width="1680"
     inkscape:window-height="987"
     inkscape:window-x="-8"
     inkscape:window-y="-8"
     inkscape:window-maximized="1"
     inkscape:current-layer="layer3"
     width="100px" />
  <g
     inkscape:groupmode="layer"
     id="layer3"
     inkscape:label="email trace">
    <path
       id="path2981"
       style="fill:none;stroke:#ffffff;stroke-width:0.1;stroke-linecap:butt;stroke-linejoin:miter;stroke-miterlimit:4;stroke-dasharray:none;stroke-opacity:1"
       d="m 11.472656,80.808594 26.078125,-26.078125 5.898438,5.898437 c 3.526784,3.526784 9.659528,3.402972 13.0625,0 L 62.46875,54.671875 88.601562,80.804687 Z M 93.155794,24.063728 V 75.929687 L 67.218522,49.992415 Z m -86.3159503,0.0066 25.9472653,25.947266 -25.9374996,25.9375 z m 4.8163693,-4.895565 h 76.682416 v 0.23202 L 52.408766,55.33663 c -1.344567,1.344567 -3.552355,1.314529 -4.866884,0 L 11.655361,19.43839 Z M 0.00390625,12.460938 H 99.996094 V 87.542969 H 0 Z" />
  </g>
  <g
     inkscape:groupmode="layer"
     id="layer5"
     inkscape:label="email trace 1"
     style="display:inline">
    <path
       style="fill:#ffffff;stroke:#ffffff;stroke-width:0.0125;stroke-miterlimit:4;stroke-dasharray:none"
       d="m -0.03759765,12.5625 c 0,24.958334 -10e-9,49.916666 0,74.875 0.82293021,0.239626 1.83236655,0.02899 2.72509765,0.100097 32.416666,0 64.833334,0 97.25,0 0.23963,-0.82293 0.02899,-1.832366 0.1001,-2.725097 0,-24.083334 0,-48.166666 0,-72.25 -0.822933,-0.239626 -1.832369,-0.02899 -2.7251,-0.100098 -32.416666,0 -64.833334,0 -97.25,0 l -0.08838835,0.08839 z M 62.14917,19.163574 c 8.556439,0.03484 17.117957,-0.06493 25.671142,0.107666 0.488354,-0.05345 0.531054,0.115618 0.137208,0.408936 -9.737744,10.009433 -19.674546,19.825166 -29.587534,29.660359 -2.30519,2.22215 -4.525857,4.562929 -6.920767,6.673137 -0.90127,0.327794 -2.011797,0.460658 -2.901855,0.02124 -3.28743,-2.898777 -6.299705,-6.107616 -9.443587,-9.167083 C 29.957099,37.710584 20.735671,28.625701 11.72876,19.330566 c 1.69383,-0.183831 3.572347,-0.08865 5.331787,-0.136474 15.029433,-0.05173 30.05912,-0.02379 45.088623,-0.03052 z M 6.996582,24.274902 c 8.649798,8.5236 17.202233,17.147774 25.799317,25.725587 C 24.156094,58.617306 15.565085,67.288931 6.8693847,75.845702 6.7450041,59.024922 6.7680764,42.19402 6.8512204,25.36966 6.9146704,25.112865 6.7281879,24.008375 6.996582,24.274902 Z m 86.141358,0.197022 c 0.106062,17.013623 0.106836,34.042533 -4.89e-4,51.056152 0.03311,0.687399 -0.694324,-0.489872 -1.002539,-0.652994 -8.346455,-8.254401 -16.62353,-16.580798 -24.930811,-24.875571 8.639805,-8.616817 17.230814,-17.288442 25.926514,-25.845214 0.0024,0.105875 0.0049,0.211751 0.0073,0.317627 z M 75.588622,67.792969 c 4.348145,4.348145 8.69629,8.696288 13.044434,13.044433 -25.700636,-0.02388 -51.40176,0.0611 -77.10205,-0.08374 8.595451,-8.733646 17.305143,-17.363426 25.960449,-26.041503 2.46972,2.33979 4.71534,4.943462 7.426757,7.013182 2.52542,1.713574 5.939934,1.85312 8.731718,0.728935 2.222514,-0.812351 3.629101,-2.83983 5.330295,-4.366874 1.154622,-1.146403 2.309245,-2.292806 3.463866,-3.439208 4.381511,4.381591 8.763021,8.763183 13.144531,13.144775 z"
       id="path5636" />
  </g>
</svg>
