<?xml version="1.0" encoding="UTF-8" standalone="no"?>
<!-- Created with Inkscape (http://www.inkscape.org/) -->

<svg
   version="1.1"
   id="svg824"
   width="313.33334"
   height="82.666664"
   viewBox="0 0 313.33334 82.666664"
   sodipodi:docname="nullstar-logo.svg"
   inkscape:version="1.1 (c68e22c387, 2021-05-23)"
   xmlns:inkscape="http://www.inkscape.org/namespaces/inkscape"
   xmlns:sodipodi="http://sodipodi.sourceforge.net/DTD/sodipodi-0.dtd"
   xmlns="http://www.w3.org/2000/svg"
   xmlns:svg="http://www.w3.org/2000/svg">
  <defs
     id="defs828" />
  <sodipodi:namedview
     id="namedview826"
     pagecolor="#505050"
     bordercolor="#ffffff"
     borderopacity="1"
     inkscape:pageshadow="0"
     inkscape:pageopacity="0"
     inkscape:pagecheckerboard="1"
     showgrid="false"
     inkscape:zoom="2.8284271"
     inkscape:cx="182.96388"
     inkscape:cy="14.495689"
     inkscape:window-width="1680"
     inkscape:window-height="987"
     inkscape:window-x="-8"
     inkscape:window-y="-8"
     inkscape:window-maximized="1"
     inkscape:current-layer="layer1" />
  <g
     inkscape:groupmode="layer"
     id="layer1"
     inkscape:label="Image 1"
     style="display:inline">
    <path
       d="M -0.00376653,23.267059 H 11.095564 L 11.096,32.52014 c 5.296051,-6.701916 10.412953,-10.219574 20.200948,-10.524497 15.194401,0 17.164112,11.554752 17.164112,15.730131 V 82.670427 H 36.241342 v -41.81545 c 0,-1.909329 -1.194897,-8.0523 -7.981665,-8.0523 -6.793338,0 -17.163677,7.779853 -17.163677,13.942907 V 82.670427 H -0.00390625 Z"
       style="fill:#cc9c77;fill-opacity:1;stroke:none;stroke-width:1;stroke-linecap:butt;stroke-linejoin:miter;stroke-miterlimit:4;stroke-dasharray:none;stroke-opacity:1"
       id="path2278"
       sodipodi:nodetypes="ccccsccsssccc" />
    <path
       style="fill:#cc9c77;fill-opacity:1;stroke:none;stroke-width:0.2;stroke-linecap:butt;stroke-linejoin:miter;stroke-miterlimit:4;stroke-dasharray:none;stroke-opacity:1"
       d="M 135.11381,0.0234375 H 165 V 72.640938 h 17.0625 V 82.664062 H 132.7151 V 72.640938 h 18.5974 V 10.039889 h -16.12252 z"
       id="path13236"
       sodipodi:nodetypes="ccccccccccc" />
    <path
       style="display:inline;fill:#cc9c77;fill-opacity:1;stroke:none;stroke-width:0.2;stroke-linecap:butt;stroke-linejoin:miter;stroke-miterlimit:4;stroke-dasharray:none;stroke-opacity:1"
       d="M 200.44512,0.08939871 H 230.316 V 72.706899 h 17.07781 v 10.023125 h -49.3474 V 72.706899 h 18.5974 V 10.105851 h -16.12252 z"
       id="path13236-7"
       sodipodi:nodetypes="ccccccccccc" />
    <path
       style="fill:#ffffff;stroke:none;stroke-width:1px;stroke-linecap:butt;stroke-linejoin:miter;stroke-opacity:1"
       d="m 283.27335,0.02208931 h 12.06076 L 293.65533,18.687559 307.9692,8.5157553 l 5.79231,8.8022657 -15.95339,8.084689 15.94848,7.422009 -5.52233,9.32169 -14.60796,-10.29362 1.61945,18.422487 h -11.88405 l 1.51278,-18.245772 -14.85473,9.896012 -5.47815,-9.144976 15.9958,-7.510366 -16.03998,-7.819617 5.52233,-8.6590105 14.71148,9.8518335 z"
       id="path22075"
       sodipodi:nodetypes="ccccccccccccccccccc" />
    <path
       d="m 113.46855,82.670221 h -11.09933 l -4.4e-4,-9.253081 c -5.296051,6.701916 -10.412953,8.938324 -20.200948,9.243247 -15.194401,0 -17.164112,-10.273502 -17.164112,-14.448881 V 23.266853 h 12.219718 v 41.81545 c 0,1.909329 1.194897,8.0523 7.981665,8.0523 6.793338,0 17.163677,-7.779853 17.163677,-13.942907 V 23.266853 h 11.09991 z"
       style="display:inline;fill:#cc9c77;fill-opacity:1;stroke:none;stroke-width:1;stroke-linecap:butt;stroke-linejoin:miter;stroke-miterlimit:4;stroke-dasharray:none;stroke-opacity:1"
       id="path2278-6"
       sodipodi:nodetypes="ccccsccsssccc" />
  </g>
</svg>
